<svg id="visual" viewBox="0 0 900 600" width="900" height="600" xmlns="http://www.w3.org/2000/svg" xmlns:xlink="http://www.w3.org/1999/xlink" version="1.1"><rect x="0" y="0" width="900" height="600" fill="#13223a"></rect><path d="M0 506L21.5 508.5C43 511 86 516 128.8 518.5C171.7 521 214.3 521 257.2 493.2C300 465.3 343 409.7 385.8 363.2C428.7 316.7 471.3 279.3 514.2 286.3C557 293.3 600 344.7 642.8 323C685.7 301.3 728.3 206.7 771.2 159.5C814 112.3 857 112.7 878.5 112.8L900 113L900 601L878.5 601C857 601 814 601 771.2 601C728.3 601 685.7 601 642.8 601C600 601 557 601 514.2 601C471.3 601 428.7 601 385.8 601C343 601 300 601 257.2 601C214.3 601 171.7 601 128.8 601C86 601 43 601 21.5 601L0 601Z" fill="#04041d" stroke-linecap="round" stroke-linejoin="miter"></path></svg>